<svg xmlns="http://www.w3.org/2000/svg" viewBox="0 0 24 24" width="512" height="512" fill="none">
  <circle cx="12" cy="12" r="12" fill="#25D366"/>
  <path fill="#fff" d="M17.56 13.38c-.28-.14-1.66-.82-1.92-.91-.26-.09-.45-.14-.64.14s-.73.91-.9 1.1c-.17.19-.34.21-.62.07-1.69-.84-2.8-1.5-3.93-3.37-.29-.49.29-.45.84-1.5.09-.16.04-.3-.02-.42-.06-.12-.64-1.54-.88-2.12-.23-.55-.47-.47-.64-.48-.17-.01-.37-.01-.57-.01s-.42.06-.64.3c-.22.25-.86.84-.86 2.05s.88 2.38 1 2.55c.12.19 1.8 2.92 4.36 3.98 1.62.7 2.27.79 3.08.66.47-.08 1.66-.68 1.9-1.34.24-.66.24-1.22.17-1.34-.07-.12-.26-.18-.54-.32z"/>
</svg>